<svg width="62" height="117" viewBox="0 0 62 117" fill="none" xmlns="http://www.w3.org/2000/svg">
<path d="M47.6367 38.9092C47.6367 43.8788 48.6513 47.4247 50.6816 49.5459C52.6816 51.667 56.2121 52.7275 61.2725 52.7275V63.6367C56.212 63.6368 52.6816 64.6972 50.6816 66.8184C48.6515 68.9395 47.6368 72.4848 47.6367 77.4541V92C47.6367 96.1817 47.2419 99.8027 46.4541 102.863C45.636 105.924 44.3181 108.454 42.5 110.454C40.6819 112.454 38.2577 113.939 35.2275 114.909C32.1972 115.879 28.4545 116.363 24 116.363V107.454C27.5151 107.454 30.2881 106.894 32.3184 105.772C34.3181 104.682 35.7424 103 36.5908 100.728C37.409 98.4548 37.8184 95.5455 37.8184 92V73.8184C37.8184 71.4547 38.1361 69.3027 38.7725 67.3633C39.3785 65.424 40.515 63.7572 42.1816 62.3633C43.8483 60.9694 46.2275 59.8943 49.3184 59.1367C49.7123 59.0392 50.1214 58.9473 50.5459 58.8623V57.5C50.1215 57.4151 49.7122 57.325 49.3184 57.2275C46.2275 56.47 43.8483 55.3939 42.1816 54C40.515 52.6061 39.3785 50.9394 38.7725 49C38.1362 47.0607 37.8184 44.9093 37.8184 42.5459V28H47.6367V38.9092Z" fill="white"/>
<path d="M13.6357 77.4541C13.6357 72.4844 12.6211 68.9386 10.5908 66.8174C8.59083 64.6963 5.06035 63.6358 0 63.6357V52.7266C5.06048 52.7265 8.59085 51.6661 10.5908 49.5449C12.621 47.4238 13.6357 43.8785 13.6357 38.9092V24.3633C13.6357 20.1816 14.0305 16.5606 14.8184 13.5C15.6365 10.4395 16.9544 7.90914 18.7725 5.90918C20.5906 3.90923 23.0147 2.4238 26.0449 1.4541C29.0752 0.484406 32.8179 1.66083e-06 37.2725 0V8.90918C33.7573 8.90918 30.9844 9.46961 28.9541 10.5908C26.9543 11.6817 25.5301 13.3632 24.6816 15.6357C23.8635 17.9085 23.4541 20.8178 23.4541 24.3633V42.5449C23.4541 44.9086 23.1364 47.0606 22.5 49C21.8939 50.9393 20.7574 52.6061 19.0908 54C17.4242 55.3939 15.045 56.469 11.9541 57.2266C11.5602 57.3241 11.1511 57.416 10.7266 57.501V58.8633C11.151 58.9482 11.5603 59.0383 11.9541 59.1357C15.045 59.8933 17.4242 60.9693 19.0908 62.3633C20.7574 63.7572 21.894 65.4239 22.5 67.3633C23.1363 69.3025 23.4541 71.4539 23.4541 73.8174V88.3633H13.6357V77.4541Z" fill="white"/>
</svg>
